<svg width="111" height="111" viewBox="0 0 111 111" fill="none" xmlns="http://www.w3.org/2000/svg">
<path d="M45.1948 67.641C40.6254 68.5215 36.2195 69.3202 31.7354 70.6865C28.9826 52.6187 26.9717 34.4489 26.0474 16.1938C32.5649 14.2207 39.169 13.7562 45.9437 14.1366C44.9921 31.9473 45.92 49.8066 45.2398 67.6327L45.1948 67.641Z" stroke="#FF2F00" stroke-width="3.86817" stroke-miterlimit="1.5" stroke-linecap="round" stroke-linejoin="round"/>
<path d="M41.5519 80.5683C32.6797 78.267 27.2666 90.4063 34.9277 95.5433C41.7036 100.087 50.4833 91.0355 46.0822 84.3414" stroke="#FF2F00" stroke-width="3.86817" stroke-miterlimit="1.5" stroke-linecap="round" stroke-linejoin="round"/>
<path d="M84.5086 26.8553C82.3163 41.3054 80.5779 55.9166 77.5857 70.2327L62.9982 67.9053C62.9982 54.7161 62.9591 38.9152 63.9723 24.5102C70.798 24.4592 77.9069 25.0162 84.5086 26.8565V26.8553Z" stroke="#FF2F00" stroke-width="3.86817" stroke-miterlimit="1.5" stroke-linecap="round" stroke-linejoin="round"/>
<path d="M71.5626 81.8481C64.1515 79.7507 59.0548 90.8282 65.6292 95.1416C72.5615 99.6897 79.6278 89.3872 74.659 83.6328" stroke="#FF2F00" stroke-width="3.86817" stroke-miterlimit="1.5" stroke-linecap="round" stroke-linejoin="round"/>
</svg>
