<?xml version="1.0" encoding="UTF-8"?>
<svg version="1.1" xmlns="http://www.w3.org/2000/svg" width="1024" height="1024">
<path d="M0 0 C337.92 0 675.84 0 1024 0 C1024 337.92 1024 675.84 1024 1024 C686.08 1024 348.16 1024 0 1024 C0 686.08 0 348.16 0 0 Z " fill="#CCE5F6" transform="translate(0,0)"/>
<path d="M0 0 C3.45631346 0.69126269 6.43764151 1.40011843 9.72900391 2.51538086 C11.10064697 2.97790253 11.10064697 2.97790253 12.5 3.44976807 C13.48226563 3.78474304 14.46453125 4.11971802 15.4765625 4.46484375 C17.022229 4.9884549 17.022229 4.9884549 18.59912109 5.52264404 C21.94241215 6.65705564 25.28384639 7.7968096 28.625 8.9375 C30.32471954 9.51632431 30.32471954 9.51632431 32.05877686 10.10684204 C47.97318499 15.52948009 63.82183652 21.0677982 79.52978516 27.06542969 C81.71440917 27.89195081 83.9053149 28.69255552 86.10546875 29.4765625 C123.91199327 43.10125311 159.84215825 61.96951324 194 83 C194.7312207 83.44714355 195.46244141 83.89428711 196.21582031 84.35498047 C212.50755294 94.34367008 228.2426602 105.19675335 244 116 C245.01433105 116.69512695 246.02866211 117.39025391 247.07373047 118.10644531 C258.65337768 126.06604747 269.92698281 134.35058393 281 143 C281.94746094 143.73694092 281.94746094 143.73694092 282.9140625 144.48876953 C289.68878323 149.7593747 296.40035788 155.09797206 303.0234375 160.55859375 C305.29008757 162.41772274 307.56571604 164.26239067 309.8515625 166.09765625 C316.96107052 171.81564158 323.87830686 177.61648783 330.57421875 183.81640625 C332.73698385 185.76324311 334.9333557 187.55460108 337.25 189.3125 C343.43741591 194.01096556 349.20838229 199.20138856 355.05810547 204.30810547 C358.11116886 206.96811669 361.17776616 209.61216771 364.25 212.25 C364.83096436 212.74918945 365.41192871 213.24837891 366.01049805 213.76269531 C369.460202 216.71553637 372.95835373 219.59486286 376.5 222.4375 C381.48475983 226.47662156 386.14083243 230.8079517 390.80859375 235.20288086 C394.27077596 238.44583572 397.79300279 241.53440224 401.5 244.5 C405.85709604 247.98567684 409.94070376 251.67842263 414 255.5 C418.84878402 260.05531356 423.77983661 264.40988385 428.9765625 268.5703125 C431.30366162 270.44041024 433.60645253 272.32980909 435.8984375 274.2421875 C450.41233452 286.33989819 465.54517734 297.47878774 480.89404297 308.48779297 C482.83984238 309.88499695 484.78184195 311.28729026 486.72265625 312.69140625 C558.2220663 364.30217672 638.72670145 397.19169261 721.24584961 426.62207031 C757.70226887 439.63017094 757.70226887 439.63017094 772.31005859 445.86816406 C776.5868078 447.6676748 780.91984007 449.31966912 785.24682617 450.99389648 C795.62207493 455.0125738 805.91132387 459.06209189 815.90039062 463.97900391 C818.45866018 465.22303685 821.03363106 466.42928558 823.609375 467.63671875 C844.74155215 477.58537331 865.29126023 488.44916074 885 501 C886.02480469 501.6496875 887.04960938 502.299375 888.10546875 502.96875 C901.64363251 511.78256144 914.67131605 521.56518015 927 532 C928.03073806 532.85738666 929.0620156 533.71412505 930.09375 534.5703125 C936.33439617 539.77256604 942.40643112 545.12151769 948.33544922 550.67700195 C951.07489968 553.24171748 953.85099918 555.7398315 956.69921875 558.18359375 C961.52252279 562.38462883 966.05447112 566.86838427 970.57568359 571.39038086 C972.02034996 572.83281856 973.47289854 574.26701565 974.92578125 575.70117188 C976.29283203 577.06532227 976.29283203 577.06532227 977.6875 578.45703125 C978.51636719 579.28178955 979.34523438 580.10654785 980.19921875 580.95629883 C982 583 982 583 982 585 C982.99 585.33 983.98 585.66 985 586 C988.71718143 589.47516127 992.1247457 593.25071175 995.5625 597 C996.61972319 598.14980255 997.67701695 599.29954022 998.734375 600.44921875 C999.54165039 601.32779541 999.54165039 601.32779541 1000.36523438 602.22412109 C1001.97414204 603.97190998 1003.58770984 605.71525693 1005.203125 607.45703125 C1010.07595847 612.7136838 1014.92912223 617.97337909 1019.59765625 623.4140625 C1021.0013129 625.00148478 1022.50164065 626.50164065 1024 628 C1024 676.51 1024 725.02 1024 775 C686.08 775 348.16 775 0 775 C0 519.25 0 263.5 0 0 Z " fill="#FEFCF0" transform="translate(0,249)"/>
<path d="M0 0 C19.62460256 1.15438839 19.62460256 1.15438839 26.87890625 1.98046875 C28.14486633 2.12020866 28.14486633 2.12020866 29.43640137 2.26277161 C32.1458462 2.56480295 34.85423685 2.8750599 37.5625 3.1875 C38.50632538 3.29537842 39.45015076 3.40325684 40.4225769 3.5144043 C69.75906254 6.88556042 99.06317163 11.07175034 128 17 C128.73800842 17.15104187 129.47601685 17.30208374 130.23638916 17.45770264 C153.82368931 22.30160384 177.01649589 27.78156278 200 35 C201.10279297 35.3393457 202.20558594 35.67869141 203.34179688 36.02832031 C265.2542003 55.17934767 324.80181741 86.00329296 376.10693359 125.55126953 C378.79680108 127.60977787 381.51834523 129.6247876 384.23754883 131.64428711 C391.31972943 136.91154956 398.21505601 142.35277528 405 148 C406.77019625 149.43828445 408.54104429 150.87576703 410.3125 152.3125 C420.19675158 160.40857501 429.83851803 168.75120021 439.21484375 177.4296875 C441.72705995 179.74811423 444.26263095 182.03568118 446.8125 184.3125 C457.28103406 193.72917178 467.5064942 203.35516973 477.36962891 213.40649414 C481.12366616 217.21181606 484.99612325 220.78797663 489.04321289 224.27905273 C492.14540631 227.00735734 495.07791712 229.89382281 498 232.8125 C498.58394531 233.38419922 499.16789062 233.95589844 499.76953125 234.54492188 C501.22015204 235.99044681 502.61552317 237.49100467 504 239 C504 239.66 504 240.32 504 241 C504.66 241 505.32 241 506 241 C507.4453125 242.46875 507.4453125 242.46875 509.125 244.5 C513.88145173 250.08537693 518.90625985 255.318101 524.5625 260 C527.85962732 262.7563684 530.58973333 265.84929687 533.375 269.11328125 C536.27538364 272.48079398 539.30547025 275.45981019 542.8125 278.1875 C543.534375 278.785625 544.25625 279.38375 545 280 C545 280.66 545 281.32 545 282 C545.56203125 282.23332031 546.1240625 282.46664063 546.703125 282.70703125 C549.56734142 284.31937076 551.47252021 286.3193562 553.75 288.6875 C558.00682431 293.02475849 562.37134929 297.06838806 567 301 C568.05128606 301.90305849 569.10202035 302.80675954 570.15234375 303.7109375 C573.1614917 306.29976137 576.17757164 308.88035233 579.19628906 311.45800781 C580.91204316 312.92480572 582.62417093 314.39574033 584.3359375 315.8671875 C594.52988379 324.59937195 605.10001333 332.73995239 616.05078125 340.50390625 C616.69402344 340.99761719 617.33726562 341.49132812 618 342 C618 342.33 618 342.66 618 343 C414.06 343 210.12 343 0 343 C0 229.81 0 116.62 0 0 Z " fill="#CCE5F6" transform="translate(0,681)"/>
<path d="M0 0 C171.6 0 343.2 0 520 0 C520 129.69 520 259.38 520 393 C500 384 500 384 493.79296875 381.12890625 C479.11310326 374.36804939 464.15424266 368.45876537 449.0625 362.6875 C447.57343643 362.1172258 447.57343643 362.1172258 446.05429077 361.53543091 C429.29081018 355.12878348 412.39659754 349.16015573 395.40551758 343.38891602 C365.71755796 333.27467285 335.75648278 322.64917599 307.95019531 308.02001953 C305.84826714 306.92063847 303.73364779 305.8484623 301.6171875 304.77734375 C276.37013001 291.88863162 252.41486751 276.58284052 230.671875 258.38818359 C228.45911247 256.55089274 226.20022967 254.77520074 223.9375 253 C202.09932659 235.52946128 182.56525851 216.07361281 164.50878906 194.77050781 C162.99272911 192.99146788 161.46355272 191.22463904 159.9296875 189.4609375 C149.72344128 177.70853694 140.4972085 165.37285193 131.41796875 152.73828125 C126.2671386 145.58032704 121.01581017 138.49638424 115.77490234 131.40429688 C113.98903218 128.9851429 112.20681718 126.56333981 110.42578125 124.140625 C106.95690147 119.42235853 103.48176792 114.70876419 100 110 C99.21496094 108.93821533 99.21496094 108.93821533 98.4140625 107.85498047 C92.50043205 99.87195459 86.46590505 92.0150166 80.21606445 84.29199219 C77.37701052 80.77035224 74.66921413 77.19967603 72.0625 73.5 C68.30660844 68.24175182 64.13091883 63.41990225 59.86767578 58.57324219 C55.73678047 53.87668559 51.77848273 49.08214703 47.90234375 44.171875 C46.07852245 41.936274 46.07852245 41.936274 43.75390625 40.328125 C43.17511719 39.88984375 42.59632813 39.4515625 42 39 C42 38.34 42 37.68 42 37 C41.34 37 40.68 37 40 37 C38.765625 35.70703125 38.765625 35.70703125 37.25 33.8125 C26.9683078 21.73151166 14.18542065 11.34419125 1.36328125 2.09375 C0.91339844 1.7328125 0.46351563 1.371875 0 1 C0 0.67 0 0.34 0 0 Z " fill="#FEFCF1" transform="translate(504,0)"/>
</svg>
