<svg width="112" height="111" viewBox="0 0 112 111" fill="none" xmlns="http://www.w3.org/2000/svg">
<path d="M75.4415 43.891C66.8561 26.706 37.93 30.4886 33.7979 49.3658C31.3046 60.7573 41.8168 68.7289 43.1749 79.3975H67.2733C67.9819 76.5452 69.4229 73.1525 70.4218 71.0669C72.4968 66.7357 75.4321 63.9035 76.546 59.071C77.6065 54.4732 77.4833 47.9793 75.4415 43.891Z" stroke="#00AAFF" stroke-width="3.86817" stroke-miterlimit="1.5" stroke-linecap="round" stroke-linejoin="round"/>
<path d="M42.7329 93.9353C42.7258 90.6433 42.5646 87.3525 42.6215 84.0617C42.644 82.7582 42.4212 81.1644 43.5494 80.2531C45.1965 78.9235 47.646 78.7304 49.6889 78.6806C53.5201 78.5894 57.3796 78.6214 61.2143 78.6297C62.961 78.632 65.5669 78.3287 67.1406 79.1973C68.6384 80.0209 69.0176 82.2688 69.1871 83.7868C69.5094 86.6948 70.3697 93.1899 67.9002 95.4414C66.3442 96.8599 63.9185 97.1561 61.9277 97.4014C56.6437 98.052 42.74 97.9228 42.7329 93.9353Z" stroke="#00AAFF" stroke-width="3.86817" stroke-miterlimit="1.5" stroke-linecap="round" stroke-linejoin="round"/>
<path d="M56.8134 97.6833C56.856 99.4751 56.8773 101.276 56.7363 103.063" stroke="#00AAFF" stroke-width="3.86817" stroke-miterlimit="1.5" stroke-linecap="round" stroke-linejoin="round"/>
<path d="M15.0312 70.3321C16.9119 69.3403 18.8742 68.5238 20.7738 67.5758" stroke="#00AAFF" stroke-width="3.86817" stroke-miterlimit="1.5" stroke-linecap="round" stroke-linejoin="round"/>
<path d="M15.0312 31.7778C17.1299 33.1109 19.1373 34.5827 21.2407 35.904" stroke="#00AAFF" stroke-width="3.86817" stroke-miterlimit="1.5" stroke-linecap="round" stroke-linejoin="round"/>
<path d="M56.4459 15.9864C56.3724 13.3474 56.3878 10.7273 56.4732 8.08945" stroke="#00AAFF" stroke-width="3.86817" stroke-miterlimit="1.5" stroke-linecap="round" stroke-linejoin="round"/>
<path d="M88.9272 33.9607C91.5615 32.2175 94.274 30.5786 96.9533 28.9054" stroke="#00AAFF" stroke-width="3.86817" stroke-miterlimit="1.5" stroke-linecap="round" stroke-linejoin="round"/>
<path d="M84.3315 69.9175C86.3627 71.7377 88.4021 73.5377 90.368 75.4278" stroke="#00AAFF" stroke-width="3.86817" stroke-miterlimit="1.5" stroke-linecap="round" stroke-linejoin="round"/>
</svg>
