<svg width="112" height="111" viewBox="0 0 112 111" fill="none" xmlns="http://www.w3.org/2000/svg">
<path d="M51.9903 94.4296C37.4052 94.394 5.52718 60.9566 8.23612 38.7459C10.1428 23.1156 24.1804 13.4198 37.3933 18.7808C44.4987 21.664 48.3274 29.1817 52.059 35.4942C56.4305 28.6638 61.7761 19.6862 69.7655 17.0021C84.1752 12.1613 97.4888 23.1737 98.944 39.9795C100.804 61.4614 65.6013 94.4628 51.9915 94.4296H51.9903Z" stroke="#FF0000" stroke-width="3.86817" stroke-miterlimit="1.5" stroke-linecap="round" stroke-linejoin="round"/>
<path d="M84.937 17.6787C86.2761 16.4226 87.6305 15.1712 89.0715 14.0312" stroke="#FF0000" stroke-width="3.86817" stroke-miterlimit="1.5" stroke-linecap="round" stroke-linejoin="round"/>
<path d="M43.9619 23.5351C45.8271 22.2375 47.5643 20.7954 49.3537 19.4018" stroke="#FF0000" stroke-width="3.86817" stroke-miterlimit="1.5" stroke-linecap="round" stroke-linejoin="round"/>
<path d="M34.9058 17.9229C36.7698 16.6253 38.5082 15.1832 40.2976 13.7884" stroke="#FF0000" stroke-width="3.86817" stroke-miterlimit="1.5" stroke-linecap="round" stroke-linejoin="round"/>
<path d="M96.0063 28.8096C97.8704 27.512 99.6088 26.071 101.398 24.6762" stroke="#FF0000" stroke-width="3.86817" stroke-miterlimit="1.5" stroke-linecap="round" stroke-linejoin="round"/>
<path d="M98.7012 45.3985C100.565 44.1009 102.304 42.66 104.093 41.2652" stroke="#FF0000" stroke-width="3.86817" stroke-miterlimit="1.5" stroke-linecap="round" stroke-linejoin="round"/>
<path d="M91.2109 62.9225C93.2966 62.0243 95.2874 60.9577 97.3197 59.9481" stroke="#FF0000" stroke-width="3.86817" stroke-miterlimit="1.5" stroke-linecap="round" stroke-linejoin="round"/>
<path d="M76.5068 80.0648C78.5948 78.9153 90.6274 72.8291 92.6467 71.5695" stroke="#FF0000" stroke-width="3.86817" stroke-miterlimit="1.5" stroke-linecap="round" stroke-linejoin="round"/>
<path d="M62.1196 97.4419C64.1863 96.2557 76.1087 89.9562 78.1054 88.6609" stroke="#FF0000" stroke-width="3.86817" stroke-miterlimit="1.5" stroke-linecap="round" stroke-linejoin="round"/>
</svg>
