<svg width="111" height="112" viewBox="0 0 111 112" fill="none" xmlns="http://www.w3.org/2000/svg">
<path d="M104.49 77.5363C103.17 57.4823 101.473 42.7526 99.6982 21.6677C93.9923 28.0241 85.414 30.6335 78.868 31.1194C65.3613 32.1207 56.5993 25.3199 43.2596 24.2783C29.7304 23.2213 18.1303 28.2066 6.22803 33.9883C8.11457 52.5005 9.89682 71.4228 10.1895 90.0405C18.5628 85.9427 27.1695 82.3379 36.6176 82.1341C45.5171 81.9421 53.9887 85.7152 62.7756 86.5909C76.1093 87.9205 93.3015 84.8265 104.49 77.5363Z" stroke="#1AFF00" stroke-width="3.86817" stroke-miterlimit="1.5" stroke-linecap="round" stroke-linejoin="round"/>
<path d="M59.0897 45.3679C55.9554 45.0538 52.5034 45.0254 49.8834 47.0115C47.7575 48.6231 46.6791 51.5584 49.0859 53.5172C52.5722 56.3529 58.278 54.5481 61.4432 58.0498C63.6271 60.4661 61.8816 63.7616 59.482 65.1836C57.6215 66.2845 55.3676 66.4042 53.2725 66.1032C51.04 65.7832 48.7778 65.532 46.5547 65.1469" stroke="#1AFF00" stroke-width="3.86817" stroke-miterlimit="1.5" stroke-linecap="round" stroke-linejoin="round"/>
<path d="M54.7236 45.4035C54.7568 44.0999 54.8409 42.8047 54.7971 41.4988" stroke="#1AFF00" stroke-width="3.86817" stroke-miterlimit="1.5" stroke-linecap="round" stroke-linejoin="round"/>
<path d="M54.311 66.1542C54.3513 67.3878 54.3916 68.6191 54.4592 69.8515" stroke="#1AFF00" stroke-width="3.86817" stroke-miterlimit="1.5" stroke-linecap="round" stroke-linejoin="round"/>
<path d="M37.3156 70.1987C33.6681 69.7365 29.7588 70.0103 26.327 71.3944C24.9571 69.0789 22.2956 67.8393 19.6495 67.991C19.0475 60.8964 18.5948 53.7519 18.0947 46.6525C21.1189 44.8726 22.83 41.9385 23.0587 38.4831C29.5194 34.7029 36.2562 33.3365 43.5855 34.8723" stroke="#1AFF00" stroke-width="3.86817" stroke-miterlimit="1.5" stroke-linecap="round" stroke-linejoin="round"/>
<path d="M68.7749 41.3591C73.7022 41.9824 78.7468 42.1021 83.6883 41.5771C85.3757 43.1769 87.6521 44.433 90.0056 44.6167C90.348 51.0892 91.7001 57.4942 92.2677 63.9572C88.9592 65.3603 85.4776 67.7884 85.2501 71.7143C80.043 72.9275 74.6262 72.9239 69.4207 71.7037" stroke="#1AFF00" stroke-width="3.86817" stroke-miterlimit="1.5" stroke-linecap="round" stroke-linejoin="round"/>
</svg>
