<svg width="112" height="111" viewBox="0 0 112 111" fill="none" xmlns="http://www.w3.org/2000/svg">
<path d="M28.8118 100.638C29.1791 97.8565 32.016 93.2018 29.6792 91.6269C19.8365 84.9933 8.66301 76.2336 9.19034 63.1179C9.40364 57.802 10.9643 51.2252 14.7599 47.2625C17.329 44.5832 22.1117 44.0807 24.5967 47.3051C27.2227 50.7144 25.0375 56.1987 24.7815 60.0108C24.5919 62.8561 25.4274 65.3268 28.6044 65.7309C29.5666 65.8529 30.5561 65.8198 31.5195 65.7072C32.8491 65.5531 34.1194 65.1716 35.2665 64.4783C39.0834 62.1723 41.1442 55.9818 41.2567 51.775C41.3278 49.1016 40.3597 46.3536 37.5868 45.5229C33.2793 44.2312 28.9777 49.546 24.8906 47.1286C24.2151 46.7292 23.5989 46.2185 23.1332 45.5845C19.9574 41.2557 23.6735 36.6898 27.2392 34.1373C30.6604 31.6867 35.1137 29.4802 39.4058 29.3392C48.9925 29.0287 54.6877 38.6723 55.9604 46.9639C56.6512 38.8975 53.9008 30.8098 53.3107 22.8074C53.0512 19.282 52.6779 15.2506 54.4341 12.0084C55.9663 9.18215 59.0615 8.44152 61.729 10.4383C64.4818 12.499 66.1918 16.0019 67.3756 19.1173C70.9022 28.4042 71.3572 38.5076 69.2005 48.0884C71.958 41.5472 74.6326 34.9538 77.3226 28.3853C78.5692 25.3422 79.567 21.6947 81.6597 19.9065C84.5594 17.4263 88.291 18.2925 90.2273 21.5477C91.9101 24.3776 92.0167 27.7157 91.6683 30.907C90.9703 37.3143 88.1678 43.4313 85.1567 49.0566C81.8102 55.3099 78.2516 61.5786 73.399 66.7891C77.5157 63.4711 81.4334 60.0938 85.2195 56.4037C88.8053 52.9079 93.0536 46.2339 98.2665 44.9138C102.102 43.9421 103.887 47.1523 103.971 50.7085C104.078 55.2198 101.017 59.4894 98.2072 62.7743C92.5156 69.4293 85.7646 75.1754 78.4507 80.0103C75.9846 81.6412 73.4511 83.168 70.8571 84.5868C69.7195 85.2089 67.7015 85.7908 66.8234 86.7198C65.8185 87.7839 65.4286 89.8127 64.9937 91.1494C63.8679 94.6025 62.7422 98.1646 62.0987 101.743" stroke="#A29147" stroke-width="3.86817" stroke-miterlimit="1.5" stroke-linecap="round" stroke-linejoin="round"/>
</svg>
