<svg width="112" height="112" viewBox="0 0 112 112" fill="none" xmlns="http://www.w3.org/2000/svg">
<path d="M40.6857 80.9584C35.3714 76.799 29.1849 73.5659 24.1875 69.1125C30.8745 57.8928 53.6308 18.7907 57.9022 10.4521C57.9281 17.7661 57.9555 24.6809 58.6868 32.6066C65.4348 29.2768 73.199 25.4633 80.2677 23.4986C70.5571 35.3308 45.4217 75.7081 40.6857 80.9584Z" stroke="#424242" stroke-width="2.76298" stroke-miterlimit="1.5" stroke-linecap="round" stroke-linejoin="round"/>
<path d="M55.0598 101.144C52.7005 96.3055 49.45 91.8566 46.2268 87.5593C51.7605 83.9858 71.9876 71.9502 79.5956 67.448C76.7671 72.2176 75.3905 77.8884 73.3436 83.0183C75.8644 83.87 78.5344 84.1701 81.1002 84.8847C83.5988 85.581 85.9185 86.7092 88.5124 87.0809C82.8127 90.9333 60.5622 98.955 55.0606 101.144H55.0598Z" stroke="#424242" stroke-width="2.76298" stroke-miterlimit="1.5" stroke-linecap="round" stroke-linejoin="round"/>
</svg>
