<svg width="111" height="112" viewBox="0 0 111 112" fill="none" xmlns="http://www.w3.org/2000/svg">
<path d="M47.669 15.2638C47.6949 22.5123 45.2298 35.625 64.1939 38.7941C52.4219 40.4929 47.9227 49.5925 47.6706 61.2639C47.3826 52.4538 48.5908 42.2808 29.2778 39.4919C47.8138 38.0269 47.5563 22.7134 47.669 15.2638Z" stroke="#FF00D0" stroke-width="2.76298" stroke-miterlimit="1.5" stroke-linecap="round" stroke-linejoin="round"/>
<path d="M66.0737 50.627C66.0996 57.8754 61.1617 71.3348 80.1258 74.5038C68.3538 76.2026 66.3274 84.9549 66.0753 96.6263C65.7873 87.8162 65.1969 77.5662 51.8008 74.6257C64.7855 73.0762 64.5661 60.5188 66.0737 50.627Z" stroke="#FF00D0" stroke-width="2.76298" stroke-miterlimit="1.5" stroke-linecap="round" stroke-linejoin="round"/>
<path d="M27.5542 13.1566C30.6151 16.6974 33.0422 20.805 36.183 24.2704" stroke="#FF00D0" stroke-width="2.76298" stroke-miterlimit="1.5" stroke-linecap="round" stroke-linejoin="round"/>
<path d="M57.2632 26.8903C59.5547 25.0026 61.7212 22.8528 63.5777 20.5316" stroke="#FF00D0" stroke-width="2.76298" stroke-miterlimit="1.5" stroke-linecap="round" stroke-linejoin="round"/>
<path d="M36.9683 51.2866C33.8883 54.1411 31.0286 57.32 28.2427 60.4617" stroke="#FF00D0" stroke-width="2.76298" stroke-miterlimit="1.5" stroke-linecap="round" stroke-linejoin="round"/>
<path d="M56.1196 57.8328C56.4556 58.347 56.8616 58.8155 57.2273 59.3091" stroke="#FF00D0" stroke-width="2.76298" stroke-miterlimit="1.5" stroke-linecap="round" stroke-linejoin="round"/>
<path d="M52.3032 87.1565C53.0361 86.4267 53.7948 85.7235 54.5162 84.9823" stroke="#FF00D0" stroke-width="2.76298" stroke-miterlimit="1.5" stroke-linecap="round" stroke-linejoin="round"/>
<path d="M73.8608 63.4121C77.1038 60.4769 79.9247 57.2523 82.655 53.844" stroke="#FF00D0" stroke-width="2.76298" stroke-miterlimit="1.5" stroke-linecap="round" stroke-linejoin="round"/>
<path d="M74.6519 87.4109C78.4761 89.7892 81.1362 94.6875 83.7819 98.2664" stroke="#FF00D0" stroke-width="2.76298" stroke-miterlimit="1.5" stroke-linecap="round" stroke-linejoin="round"/>
</svg>
