<svg width="111" height="112" viewBox="0 0 111 112" fill="none" xmlns="http://www.w3.org/2000/svg">
<path d="M80.2148 70.0777C82.1654 76.6984 86.2098 85.6298 84.4963 92.4543C81.7624 103.35 68.0234 96.5544 62.7122 92.5787C61.2967 91.5308 59.9113 90.4429 58.5576 89.3164C56.9478 87.9728 55.3759 86.5846 53.8436 85.1534C49.4638 90.39 43.2496 96.1361 36.7439 98.4682C31.2916 100.424 26.7542 98.025 25.7422 92.2209C24.5335 85.2921 26.5149 77.3869 28.2793 70.7165C23.0108 65.7074 17.5408 60.6273 13.6326 54.4937C9.87611 48.5959 12.6846 43.0749 19.2898 41.5628C21.4229 41.0734 23.608 40.8317 25.792 40.7262C28.732 40.584 34.7483 40.8151 37.5983 40.8151C37.7973 40.7001 38.2216 38.951 38.3282 38.6536C39.0413 36.633 39.8147 34.6342 40.6473 32.6598C41.2819 31.1683 41.9309 29.6831 42.5943 28.2042C44.9572 22.9415 50.2056 8.78303 58.1073 14.1784C58.9107 14.727 59.5861 15.4167 60.1988 16.1656C61.212 17.404 62.0071 18.8639 62.7371 20.2824C64.1082 22.9439 65.1782 25.7453 66.2684 28.5301C67.8954 32.6883 69.2582 36.9887 71.0606 41.0781C71.0828 41.1286 71.1002 41.1809 71.1128 41.2346C73.7921 41.3009 76.4785 41.3471 79.1554 41.481C84.9952 41.7714 94.1257 40.2522 96.6877 46.0741C98.0741 49.2227 96.5407 52.5538 94.6601 55.1063C90.8385 60.2931 85.6694 64.2949 80.658 68.2564" stroke="#F7FF00" stroke-width="3.86817" stroke-miterlimit="1.5" stroke-linecap="round" stroke-linejoin="round"/>
<path d="M63.8193 22.7105C65.854 20.7019 68.0629 18.7751 70.2551 16.9395" stroke="#F7FF00" stroke-width="3.86817" stroke-miterlimit="1.5" stroke-linecap="round" stroke-linejoin="round"/>
<path d="M68.1208 33.3187C70.9139 30.6667 73.6714 28.0099 76.5131 25.4147" stroke="#F7FF00" stroke-width="3.86817" stroke-miterlimit="1.5" stroke-linecap="round" stroke-linejoin="round"/>
<path d="M78.9934 41.4101C81.1916 38.8303 83.4111 36.247 85.7788 33.8177" stroke="#F7FF00" stroke-width="3.86817" stroke-miterlimit="1.5" stroke-linecap="round" stroke-linejoin="round"/>
<path d="M94.907 43.5585C96.4888 42.1661 98.0349 40.7337 99.5439 39.2628" stroke="#F7FF00" stroke-width="3.86817" stroke-miterlimit="1.5" stroke-linecap="round" stroke-linejoin="round"/>
<path d="M81.9712 75.4684C83.36 74.1696 84.7524 72.8779 86.2254 71.6728" stroke="#F7FF00" stroke-width="3.86817" stroke-miterlimit="1.5" stroke-linecap="round" stroke-linejoin="round"/>
<path d="M84.8201 90.4221C86.3558 89.0356 87.8881 87.6278 89.5068 86.3373" stroke="#F7FF00" stroke-width="3.86817" stroke-miterlimit="1.5" stroke-linecap="round" stroke-linejoin="round"/>
<path d="M61.1054 91.3298C58.9688 93.8503 56.5111 95.9181 53.936 97.9658" stroke="#F7FF00" stroke-width="3.86817" stroke-miterlimit="1.5" stroke-linecap="round" stroke-linejoin="round"/>
</svg>
